<?xml version="1.0" standalone="no"?>
<!DOCTYPE svg PUBLIC "-//W3C//DTD SVG 20010904//EN"
 "http://www.w3.org/TR/2001/REC-SVG-20010904/DTD/svg10.dtd">
<svg version="1.0" xmlns="http://www.w3.org/2000/svg"
 width="128.000000pt" height="128.000000pt" viewBox="0 0 128.000000 128.000000"
 preserveAspectRatio="xMidYMid meet">

<g transform="translate(0.000000,128.000000) scale(0.100000,-0.100000)"
fill="#7c5ddf" stroke="none">
<path d="M536 1270 c-205 -37 -377 -163 -463 -340 -53 -109 -67 -172 -67 -290
0 -118 14 -181 67 -290 77 -159 241 -289 417 -331 71 -17 229 -17 300 0 176
42 340 172 417 331 53 109 67 172 67 290 0 118 -14 181 -67 290 -75 154 -229
281 -397 325 -70 19 -210 27 -274 15z m319 -215 l25 -24 0 -351 0 -351 -25
-24 c-24 -25 -26 -25 -215 -25 -189 0 -191 0 -215 25 l-25 24 0 351 0 351 25
24 c24 25 26 25 215 25 189 0 191 0 215 -25z m-608 -60 c-4 -8 -16 -51 -29
-96 -12 -45 -24 -76 -26 -70 -6 19 39 181 50 181 6 0 8 -7 5 -15z m88 5 c3 -5
2 -10 -4 -10 -5 0 -29 -59 -53 -130 -23 -72 -44 -126 -46 -121 -5 14 80 271
90 271 4 0 10 -4 13 -10z m599 -72 c4 -46 9 -95 12 -110 3 -16 1 -28 -4 -28
-6 0 -13 37 -16 83 -4 45 -9 94 -12 110 -3 15 -1 27 4 27 6 0 13 -37 16 -82z
m121 -8 c16 -49 26 -92 23 -95 -5 -5 -26 54 -63 173 -3 6 -1 12 3 12 5 0 21
-40 37 -90z"/>
<path d="M467 1014 c-4 -4 -7 -135 -7 -291 l0 -283 180 0 180 0 -2 288 -3 287
-171 3 c-93 1 -173 -1 -177 -4z"/>
<path d="M610 385 c-15 -18 -10 -45 13 -59 34 -22 73 27 47 59 -16 19 -44 19
-60 0z" fill="#7c5ddf"/>
</g>
</svg>
