<?xml version="1.0" standalone="no"?>
<!DOCTYPE svg PUBLIC "-//W3C//DTD SVG 20010904//EN"
 "http://www.w3.org/TR/2001/REC-SVG-20010904/DTD/svg10.dtd">
<svg version="1.0" xmlns="http://www.w3.org/2000/svg"
 width="64.000000pt" height="64.000000pt" viewBox="0 0 64.000000 64.000000"
 preserveAspectRatio="xMidYMid meet">

<g transform="translate(0.000000,64.000000) scale(0.100000,-0.100000)"
fill="#000000" stroke="none">
<path d="M242 615 c-110 -31 -189 -112 -218 -225 -19 -75 -13 -124 27 -207 50
-104 151 -167 269 -167 120 0 218 62 272 171 42 86 45 171 7 253 -37 78 -71
115 -142 149 -77 37 -145 45 -215 26z m200 -158 c59 -34 85 -64 70 -79 -9 -9
-17 -7 -34 10 -36 33 -109 62 -158 62 -49 0 -122 -29 -158 -62 -17 -16 -25
-19 -34 -10 -13 13 -1 32 45 64 77 55 190 61 269 15z m-36 -57 c51 -25 76 -51
65 -69 -7 -10 -18 -7 -51 16 -35 22 -55 28 -100 28 -45 0 -65 -6 -100 -28 -33
-23 -44 -26 -51 -16 -19 31 79 89 150 89 25 0 64 -9 87 -20z m-16 -70 c45 -23
52 -31 40 -49 -8 -14 -14 -13 -60 14 -32 19 -68 19 -100 0 -46 -27 -52 -28
-60 -14 -12 18 -5 26 38 49 48 25 93 25 142 0z m-24 -75 l26 -24 -18 -38 c-22
-44 -63 -56 -95 -27 -27 24 -25 78 3 98 31 22 53 20 84 -9z" fill="#7c5ddf"/>
</g>
</svg>
