<?xml version="1.0" encoding="utf-8"?>
<!-- Generator: Adobe Illustrator 24.1.2, SVG Export Plug-In . SVG Version: 6.00 Build 0)  -->
<svg version="1.1" id="Layer_1" xmlns="http://www.w3.org/2000/svg" xmlns:xlink="http://www.w3.org/1999/xlink" x="0px" y="0px"
	 viewBox="0 0 400 400" style="enable-background:new 0 0 400 400;" xml:space="preserve">
<style type="text/css">
	.st0{fill:#FFFFFF;}
</style>
<desc>Created with Fabric.js 3.6.2</desc>
<g id="XMLID_30_" transform="matrix(1.78 0 0 1.78 200 200)">
	<circle cx="0" cy="0" r="112.4"/>
</g>
<g id="Capa_1_2_" transform="matrix(1.78 0 0 1.78 175.19 204.42)">
	<path class="st0" d="M-57.9-0.4c-1-28,22.7-53.8,49.7-54.1C5.6-55.8,19-50.2,29.5-41.2c-4.3,4.9-8.6,9.7-13.3,14.2
		c-9.2-5.8-20.3-10.2-31-6.3C-32.2-28.2-42.7-7-36.2,10.5c5.3,18.3,26.9,28.3,43.7,20.7c8.7-3.2,14.5-11.6,17-20.5
		c-10-0.2-20-0.1-30.1-0.4c0-6.2,0-12.3,0-18.5c16.7,0,33.4-0.1,50.2,0.1C45.6,7,43.5,23.1,34,35.2C21,52.5-3,57.6-22.6,50.8
		C-43.3,43.8-58.4,22.2-57.9-0.4z"/>
</g>
<g id="Capa_1_3_" transform="matrix(1.78 0 0 1.78 246.85 204.47)">
	<path class="st0" d="M19.8-13.9c3.2,0,6.5,0,9.7,0c0,3.1,0,6.3,0.1,9.4c3.3,0,6.5,0,9.8,0.1c0,3.1,0,6.2,0,9.3c-3.3,0-6.5,0-9.8,0
		c0,3.1,0,6.3-0.1,9.4c-3.3,0-6.5,0-9.8,0c0-3.1,0-6.3-0.1-9.4c-3.3,0-6.5,0-9.8-0.1c0-3.1,0-6.2,0-9.3c3.3,0,6.5,0,9.8-0.1
		C19.7-7.6,19.8-10.7,19.8-13.9z"/>
</g>
</svg>
