<?xml version="1.0" standalone="no"?>
<!DOCTYPE svg PUBLIC "-//W3C//DTD SVG 20010904//EN"
 "http://www.w3.org/TR/2001/REC-SVG-20010904/DTD/svg10.dtd">
<svg version="1.0" xmlns="http://www.w3.org/2000/svg"
 width="512.000000pt" height="512.000000pt" viewBox="0 0 512.000000 512.000000"
 preserveAspectRatio="xMidYMid meet">

<g transform="translate(0.000000,512.000000) scale(0.100000,-0.100000)"
fill="#7c5ddf" stroke="none">
<path d="M2370 5113 c-379 -36 -661 -116 -980 -278 -378 -193 -717 -497 -965
-865 -104 -156 -232 -419 -294 -605 -49 -150 -89 -321 -113 -490 -17 -118 -17
-512 0 -630 42 -295 120 -553 242 -800 137 -280 272 -468 494 -691 221 -220
412 -357 681 -489 188 -92 309 -137 500 -185 500 -126 1002 -102 1490 71 149
53 407 182 540 271 365 243 667 578 866 963 181 348 271 694 286 1090 15 426
-73 832 -263 1214 -124 250 -263 447 -458 648 -216 224 -428 378 -711 518
-296 146 -572 225 -900 255 -102 9 -333 11 -415 3z m244 -994 c26 -20 26 -21
26 -163 0 -153 -7 -178 -54 -190 -39 -10 -75 10 -92 51 -12 28 -15 65 -12 156
3 116 4 119 31 143 34 29 66 31 101 3z m-863 -496 c85 -83 99 -101 99 -129 0
-41 -26 -72 -68 -80 -32 -6 -38 -2 -133 93 -81 81 -99 104 -99 129 1 44 39 83
84 84 11 0 62 -42 117 -97z m1779 67 c13 -13 20 -33 20 -56 0 -31 -10 -46 -72
-111 -40 -42 -87 -82 -105 -89 -53 -23 -104 7 -105 63 -1 41 11 59 95 141 65
62 80 72 111 72 23 0 43 -7 56 -20z m-762 -161 c312 -71 566 -326 642 -641 14
-59 20 -117 20 -203 0 -198 -31 -297 -149 -480 -132 -204 -166 -318 -181 -601
-6 -132 -12 -168 -29 -201 -21 -42 -70 -89 -107 -103 -14 -6 -27 -26 -38 -56
-36 -108 -104 -181 -213 -232 -50 -23 -71 -27 -148 -27 -77 0 -98 4 -148 27
-110 52 -178 124 -213 230 -10 32 -24 52 -38 58 -37 14 -86 60 -107 103 -17
33 -23 69 -29 201 -14 267 -51 396 -166 577 -136 215 -164 299 -164 498 0 250
82 451 251 620 216 216 513 300 817 230z m-1222 -632 c29 -34 31 -66 3 -101
l-20 -26 -157 0 c-146 0 -157 1 -179 22 -26 24 -30 72 -9 100 23 31 59 38 199
35 138 -2 139 -2 163 -30z m2350 23 c56 -22 72 -85 32 -127 -21 -22 -27 -23
-179 -23 l-158 0 -20 26 c-12 15 -21 36 -21 48 0 28 26 65 54 76 30 12 259 12
292 0z"/>
<path d="M2395 3384 c-137 -33 -295 -133 -380 -242 -115 -145 -160 -289 -153
-490 6 -153 21 -199 117 -352 119 -191 160 -291 189 -467 l17 -103 148 0 147
0 0 297 0 298 -102 102 c-90 91 -102 106 -102 137 0 62 58 100 112 72 15 -8
61 -49 102 -90 l74 -76 77 75 c65 64 82 75 111 75 45 0 78 -34 78 -80 0 -28
-13 -46 -95 -129 l-95 -97 0 -292 0 -292 154 0 153 0 7 58 c19 167 76 320 188
497 105 168 120 211 126 367 5 154 -12 243 -68 356 -96 190 -271 329 -472 377
-79 19 -253 18 -333 -1z"/>
<path d="M2197 1563 c-14 -14 -6 -71 14 -97 l20 -26 334 0 334 0 21 27 c14 19
20 38 18 62 l-3 36 -366 3 c-201 1 -368 -1 -372 -5z"/>
<path d="M2375 1251 c31 -60 118 -111 190 -111 72 0 159 51 190 111 l16 29
-206 0 -206 0 16 -29z"/>
</g>
</svg>
