<?xml version="1.0" encoding="iso-8859-1"?>
<!-- Generator: Adobe Illustrator 19.0.0, SVG Export Plug-In . SVG Version: 6.00 Build 0)  -->
<svg version="1.1" id="Layer_1" xmlns="http://www.w3.org/2000/svg" xmlns:xlink="http://www.w3.org/1999/xlink" x="0px" y="0px"
	 viewBox="0 0 512 512" style="enable-background:new 0 0 512 512;" xml:space="preserve">
<path style="fill:#7c5ddf;" d="M256,504C119.248,504,8,392.752,8,256C8,119.256,119.248,8,256,8s248,111.256,248,248
	C504,392.752,392.752,504,256,504z"/>
<path style="fill:#7c5ddf;" d="M256,16c132.336,0,240,107.664,240,240S388.336,496,256,496S16,388.336,16,256S123.664,16,256,16
	 M256,0C114.616,0,0,114.616,0,256s114.616,256,256,256s256-114.616,256-256S397.384,0,256,0L256,0z"/>
<circle style="fill:#FFFFFF;" cx="162.368" cy="194.576" r="40.976"/>
<path style="fill:#FFFFFF;" d="M233.048,326.384c0,0,0,1.912,0-36.264s-41.672-38.872-41.672-38.872h-58.008
	c0,0-41.672,0.464-41.672,38.872c0,38.176,0,36.264,0,36.264H233.048z"/>
<circle style="fill:#FFFFFF;" cx="349.624" cy="194.576" r="40.976"/>
<path style="fill:#FFFFFF;" d="M420.304,326.384c0,0,0,1.912,0-36.264s-41.672-38.872-41.672-38.872h-58.008
	c0,0-41.672,0.464-41.672,38.872c0,38.176,0,36.264,0,36.264H420.304z"/>
<g>
</g>
<g>
</g>
<g>
</g>
<g>
</g>
<g>
</g>
<g>
</g>
<g>
</g>
<g>
</g>
<g>
</g>
<g>
</g>
<g>
</g>
<g>
</g>
<g>
</g>
<g>
</g>
<g>
</g>
</svg>
