<?xml-stylesheet type="text/css" href="./css/style.css"?>
<svg width="240px" height="240px" xmlns="http://www.w3.org/2000/svg" viewBox="-178.002 -167.502 182 175.5">
  <path d="M -111 -106 M -178 -100 A 1 1 0 0 0 -42 -99 A 1 1 0 0 0 -178 -100 Z Z Z Z Z Z Z M -150 -105 Q -110.5 -105 -77 -105 V -105 V -105 Q -71 -105 -71 -101 Q -71 -100.5 -71 -101 Q -71 -97 -76 -97 H -76 L -76 -97 Q -76 -97 -76 -97 Q -84 -58 -89 -59 H -130 Q -137 -58 -144 -96 L -144 -96 Q -150 -96 -150 -101 V -101 Q -150 -105 -145 -105 Z V -100 M -115 -70 A 1 1 0 0 0 -107 -70 V -91 A 1 1 0 0 0 -115 -91 V -70 Z M -98 -69 A 1 1 0 0 0 -90 -68 L -87 -89 A 1 1 0 0 0 -95 -90 L -98 -69 M -131 -68 A 1 1 0 0 0 -123 -71 L -129 -91 A 1 1 0 0 0 -137 -89 L -131 -68 Z M -119 -136 L -115 -132 L -130 -112 H -137 L -119 -136 M -115 -132 M -109 -132 Q -112 -130 -115 -132 L -119 -136 Q -118 -141 -111 -141 Q -105 -141 -104 -135 L -87 -112 H -94 Z" fill="#ebbb11"/>
</svg>