<?xml-stylesheet type="text/css" href="./css/style.css"?>
<svg width="240px" height="240px" xmlns="http://www.w3.org/2000/svg" viewBox="-178.002 -167.502 182 175.5">
  <path d="M -111 -99 M -178 -100 A 1 1 0 0 0 -42 -99 A 1 1 0 0 0 -178 -100 Z Z Z Z Z M -133 -125 H -83 M -83 -125 Q -72 -125 -72 -115 V -85 Q -72 -73 -84 -73 H -131 Q -145 -73 -145 -86 V -113 Q -145 -125 -133 -125 Z M -115 -73 L -100 -73 V -65 H -87 Q -80 -65 -80 -60 V -57 V -57 H -134 V -60 Q -134 -65 -128 -65 H -115 V -73 M -129 -117 Q -137 -117 -137 -109 V -90 Q -137 -81 -128 -81 H -92 Q -80 -81 -80 -92 Q -80 -103 -80 -109 Q -80 -117 -89 -117 Z" fill="#d94748"/>
</svg>