<?xml-stylesheet type="text/css" href="./css/style.css"?>
<svg  width="240px" height="240px" xmlns="http://www.w3.org/2000/svg" viewBox="-173.002 -168.002 177 176">
  <path d="M -103 -96 M -173 -100 A 1 1 0 0 0 -36 -99 A 1 1 0 0 0 -173 -100 Z Z Z Z Z Z Z Z Z Z Z M -74 -124 Q -69 -120 -74 -114 L -78 -109 L -96 -122 Q -88 -134 -84 -131 Z M -98 -119 L -80 -106 L -106 -68 L -124 -81 L -98 -119 Z M -127 -78 L -109 -65 L -117 -61 Q -121 -69 -128 -69 L -127 -78 Z M -128 -66 Q -122 -66 -120 -60 L -129 -57 M -129 -57 L -128 -66 Z M -116 -83 A 1 1 0 0 0 -113 -81 L -95 -106 A 1 1 0 0 0 -99 -108 L -116 -83 M -109 -79 A 1 1 0 0 0 -106 -77 L -89 -101 A 1 1 0 0 0 -92 -103 L -109 -79 Z" fill="#5094f2"/>
</svg>