<?xml-stylesheet type="text/css" href="./css/style.css"?>
<svg width="240px" height="240px" xmlns="http://www.w3.org/2000/svg" viewBox="-178.002 -167.502 182 175.5">
  <path d="M -111 -99 M -178 -100 A 1 1 0 0 0 -42 -99 A 1 1 0 0 0 -178 -100 Z Z Z Z Z M -157 -126 H -64 M -74 -126 Q -65 -127 -63 -120 C -63 -107 -63 -91 -63 -84 Q -63 -79 -66 -76 T -77 -73 H -146 Q -155 -73 -156 -81 V -115 Q -155 -126 -144 -126 Z M -115 -73 L -100 -73 V -65 H -87 Q -80 -65 -80 -60 V -57 V -57 H -134 V -60 Q -134 -65 -128 -65 H -115 V -73 M -141 -117 Q -148 -117 -148 -110 V -91 Q -148 -82 -141 -82 H -81 Q -71 -82 -71 -91 Q -71 -108 -71 -109 Q -71 -117 -79 -117 M -71 -117 Z" fill="#d94748"/>
</svg>