<?xml version="1.0" encoding="utf-8"?>
<!-- Generator: Adobe Illustrator 24.1.2, SVG Export Plug-In . SVG Version: 6.00 Build 0)  -->
<svg version="1.1" id="Layer_1" xmlns="http://www.w3.org/2000/svg" xmlns:xlink="http://www.w3.org/1999/xlink" x="0px" y="0px"
	 viewBox="0 0 240 240" style="enable-background:new 0 0 240 240;" xml:space="preserve">
<style type="text/css">
	.st0{fill:#7C5DDF;}
</style>
<path class="st0" d="M0,119.5c-0.5,66.1,52.8,120,119.1,120.5c66.3,0.5,120.4-52.7,120.9-118.8S187.1,1.2,120.9,0.7
	S0.5,53.4,0,119.5z M173.4,77.5c5.8,4.7,5.8,10.5,0,17.5l-7,8.7L134.9,81c9.3-14,16.3-19.2,21-15.7L173.4,77.5z M131.4,86.3
	l31.5,22.7l-45.5,66.4l-31.5-22.7L131.4,86.3z M80.6,157.9l31.5,22.7l-14,7c-4.7-9.3-11.1-14-19.3-14L80.6,157.9z M78.8,178.9
	c7,0,11.7,3.5,14,10.5l-15.8,5.2 M77.1,194.6l1.8-15.7L77.1,194.6z M99.9,149.2c-1,1.4-0.6,3.4,0.9,4.4c1.5,1,3.4,0.6,4.4-0.9
	l31.5-43.7c1-1.9,0.2-4.3-1.8-5.2c-1.9-1-4.3-0.2-5.3,1.7L99.9,149.2 M112.1,156.1c-1,1.4-0.6,3.4,0.9,4.4c1.5,1,3.4,0.6,4.4-0.9
	l29.8-41.9c1-1.4,0.6-3.4-0.9-4.4c-1.5-1-3.4-0.6-4.4,0.9L112.1,156.1z"/>
</svg>
