<?xml version="1.0" encoding="utf-8"?>
<!-- Generator: Adobe Illustrator 24.1.2, SVG Export Plug-In . SVG Version: 6.00 Build 0)  -->
<svg version="1.1" id="Layer_1" xmlns="http://www.w3.org/2000/svg" xmlns:xlink="http://www.w3.org/1999/xlink" x="0px" y="0px"
	 viewBox="0 0 512 512" style="enable-background:new 0 0 512 512;" xml:space="preserve">
<style type="text/css">
	.st0{fill:#FFCA05;}
</style>
<g transform="translate(0.000000,512.000000) scale(0.100000,-0.100000)">
	<path class="st0" d="M2128.4,4747.3l-24.1-22.7v-253.6v-253.6l-59.7-13.4c-33.9-8.4-94.5-30.2-136.3-49.5
		c-60.6-27.7-90.9-48.7-151.5-106.6c-102.5-96.6-155.9-194-177.3-320.8l-8.9-52.1l-204.1-194c-123-116.7-213-209.1-225.4-231.8
		c-17.8-31.9-21.4-49.5-21.4-117.6c0-67.2,3.6-85.6,20.5-117.6c22.3-41.1,258.4-271.2,319-310.7c87.3-57.9,213.9-73.9,317.2-41.1
		c69.5,21.8,90.9,36.1,185.3,120.9c121.2,108.3,196.9,149.5,296.7,160.4c43.7,5,148.8-8.4,148.8-19.3c0-9.2-82-112.5-134.5-169.6
		c-29.4-31.9-101.6-95.7-162.2-141.9c-198.7-153.7-312.8-282.1-410.8-463.5c-73.1-136.9-147.9-356-147.9-436.6
		c0-13.4-5.3-16.8-28.5-16.8c-35.6,0-107.8-31.1-147-62.1c-15.1-12.6-41-45.3-55.2-73.9l-27.6-51.2v-192.3
		c0-175.5-1.8-192.3-15.1-197.3c-256.6-84.8-429.5-303.1-430.4-540.8c0-57.9,1.8-66.3,23.2-86.5l24.1-21.8h1645.8h1645.8l24.1,21.8
		c21.4,20.2,23.2,28.5,23.2,86.5c-0.9,237.6-173.8,455.9-429.5,540.8c-14.3,5-16,21.8-16,197.3v192.3l-27.6,51.2
		c-14.3,28.5-40.1,61.3-55.2,73.9c-36.5,29.4-111.4,62.1-141.7,62.1c-22.3,0-24.1,2.5-30.3,55.4c-8,76.4,0,197.3,18.7,265.3
		l15.1,57.1h256.6h255.7l22.3,21c41,38.6,124.7,347.6,154.2,569.3c15.1,116.7,17.8,384.6,4.5,497.1
		c-23.2,195.6-73.1,406.4-128.3,540.8c-207.6,507.2-675.4,908.5-1210.9,1039.5c-89.1,21.8-97.1,22.7-429.5,25.2l-339.5,3.4
		L2128.4,4747.3z M2532,4580.2c43.7-20.2,61.5-36.9,82.9-75.6c16.9-30.2,19.6-52.1,24.1-228.4c5.3-232.6-0.9-220,125.6-249.4
		c232.6-54.6,423.2-167.9,570.3-340.1c141.7-163.7,221.9-401.4,237-697.8c10.7-215.8-22.3-379.5-160.4-797.7
		c-57.9-176.3-71.3-250.2-66.8-383.7l3.6-111.7h-805.5h-805.5l6.2,36.1c18.7,105.8,81.1,266.2,144.4,372.8
		c87.3,146.9,178.2,242.7,370.7,391.3c108.7,84.8,203.2,182.2,279.8,289.7c49.9,70.5,52.6,73.1,78.4,68c58.8-11.8,180-7.6,249.5,9.2
		c85.5,21,188,64.7,205.8,87.3c7.1,9.2,12.5,33.6,12.5,53.7c0,29.4-5.3,41.1-25.8,61.3c-34.8,32.7-64.2,31.9-164.8-6.7
		c-63.3-24.4-96.2-31.1-152.4-33.6c-77.5-4.2-100.7,0.8-228.1,51.2c-179.1,70.5-352,57.9-522.2-37.8c-26.7-16-90.9-65.5-140.8-110.8
		c-96.2-85.6-133.7-106.6-188.9-106.6c-57,0-100.7,28.5-232.6,153.7c-175.5,167.1-183.6,131,90.9,392.1
		c119.4,113.4,221.9,214.1,227.2,224.2s9.8,31.9,9.8,47.9c0,87.3,47.2,197.3,115.8,268.7c79.3,81.4,176.4,126,297.6,136.9
		c52.6,4.2,66.8,9.2,87.3,28.5l24.9,22.7v254.4v253.6l109.6-4.2C2472.3,4596.2,2508.9,4592,2532,4580.2z M2932.1,4554.2
		c339.5-92.4,683.4-350.1,892.8-666.7c129.2-196.5,202.3-410.6,245-713.7c20.5-146.9,13.4-441.7-13.4-581.9
		c-18.7-102.4-42.8-194.8-73.1-293l-17.8-57.1h-169.3c-157.7,0-169.3,0.8-164.8,15.1c79.3,252.7,106,365.3,122.1,522.3
		c17.8,179.7-3.6,412.3-56.1,611.3c-96.2,366.9-400.1,665.9-793,784.3l-87.3,26v148.6c0,107.5-3.6,159.5-13.4,189.8
		c-7.1,22.7-13.4,42.8-13.4,44.5C2790.4,4588.6,2851.9,4576,2932.1,4554.2z M3541.6,1518.8c58.8-15.1,64.2-31.1,66.8-215l3.6-162.1
		h-378.7h-377.8l-24.1-21.8c-18.7-17.6-23.2-30.2-23.2-62.1s4.5-44.5,23.2-62.1l24.1-21.8h361.8c438.4,0,487.4-4.2,585.4-50.4
		c111.4-51.2,212.1-164.6,231.7-260.3l6.2-25.2H2541.8c-1461.3,0-1497.9,0-1497.9,16c0,8.4,16,45.3,35.6,82.3
		c67.7,128.5,196,213.3,348.4,229.2c41,4.2,237.9,8.4,436.6,8.4h361.8l24.1,21.8c18.7,17.6,23.2,30.2,23.2,62.1s-4.5,44.5-23.2,62.1
		l-24.1,21.8h-377.8h-378.7l3.6,162.1c2.7,181.4,8.9,199.8,63.3,215C1577.7,1529.7,3497.9,1530.5,3541.6,1518.8z"/>
	<path class="st0" d="M2029.5,3605.4c-18.7-17.6-23.2-30.2-23.2-62.1c0-31.9,4.5-44.5,23.2-62.1c23.2-21.8,24.9-21.8,155-21.8
		c130.1,0,131.9,0,155,21.8c18.7,17.6,23.2,30.2,23.2,62.1c0,31.9-4.5,44.5-23.2,62.1c-23.2,21.8-24.9,21.8-155,21.8
		C2054.4,3627.2,2052.6,3627.2,2029.5,3605.4z"/>
	<path class="st0" d="M2475,1119.9c-18.7-17.6-23.2-30.2-23.2-62.1c0-55.4,30.3-84,89.1-84s89.1,28.5,89.1,84
		c0,31.9-4.5,44.5-23.2,62.1c-18.7,17.6-32.1,21.8-65.9,21.8C2507.1,1141.7,2493.7,1137.5,2475,1119.9z"/>
</g>
</svg>
