<?xml version="1.0" encoding="utf-8"?>
<!-- Generator: Adobe Illustrator 24.1.2, SVG Export Plug-In . SVG Version: 6.00 Build 0)  -->
<svg version="1.1" id="Layer_1" xmlns="http://www.w3.org/2000/svg" xmlns:xlink="http://www.w3.org/1999/xlink" x="0px" y="0px"
	 viewBox="0 0 512 512" style="enable-background:new 0 0 512 512;" xml:space="preserve">
<style type="text/css">
	.st0{fill:#FFCA05;}
</style>
<g transform="translate(0.000000,512.000000) scale(0.100000,-0.100000)">
	<path class="st0" d="M2317.5,4457.4c-485-68.9-904.1-286.7-1247.4-648.4c-304.6-321.2-492.4-701.8-569.8-1152.1
		c-15.6-94.7-18.1-139.5-18.9-325.5c0-237.7,7.4-308.3,56.8-512.4l26.3-111.9l-23.9-23.2c-13.2-13.8-32.9-43.1-43.6-67.2
		c-37.9-82.7-32.9-111.9,91.4-596.7c60.9-237.7,116.1-445.2,123.5-460.7c38.7-86.1,113.6-136.9,210-141.2
		c53.5-2.6,79.9,1.7,193.5,34.4l131.7,37.9l31.3-32.7c42.8-43.9,95.5-68.9,156.4-74.1c43.6-4.3,76.6,2.6,228.1,44.8
		c200.9,55.1,247.8,74.9,289.8,119.7c50.2,54.2,67.5,102.5,67.5,181.7c-0.8,62-16.5,131.7-154.8,667.3
		c-96.3,374.6-162.2,612.2-174.6,633.8c-39.5,72.3-110.3,116.2-196.8,122.3c-51,2.6-79-2.6-234.7-45.6
		c-97.2-27.6-194.3-58.6-214.9-68.9l-38.7-19.8l-9.1,62c-4.9,33.6-11.5,82.7-14,109.4l-4.9,48.2l44.5,26.7
		c81.5,47.4,114.4,105.9,129.3,225.6c56,448.6,325.2,853.3,723.7,1088.4c331.8,195.5,713.9,248,1078.6,147.2
		c267.6-74.1,536.8-248.9,723.7-469.3c189.4-223,306.3-485.7,340.9-766.4c14.8-119.7,47.8-178.2,129.3-225.6l44.5-26.7l-4.9-48.2
		c-2.5-26.7-9.1-75.8-14-109.4l-9.1-62l-38.7,19.8c-20.6,10.3-117.7,41.3-214.9,68.9c-155.6,43.1-183.6,48.2-234.7,45.6
		c-86.5-6-157.3-49.9-196.8-122.3c-12.4-21.5-78.2-259.2-174.6-633.8c-136.7-531.3-154-606.2-154.8-667.3
		c-0.8-55.1,3.3-76.6,18.1-108.5c23.1-49.9,66.7-97.3,108.7-119.7c47.8-25.8,392.8-120.6,437.2-120.6c63.4,0,117.7,22.4,165.5,68
		l43.6,41.3l131.7-37.9c113.6-32.7,140-37.9,193.5-34.4c96.3,5.2,171.3,55.1,210,141.2c7.4,15.5,62.6,223,123.5,460.7
		c124.3,484.8,129.3,514.1,91.4,596.7c-10.7,24.1-30.5,54.2-43.6,67.2l-24.7,24.1l23.1,94.7c51.9,208.4,60.9,285.9,60.9,524.4
		c0,240.2-10.7,328.1-60.9,530.4c-69.2,273-210.8,563.2-387.8,792.2c-73.3,93.9-227.3,254-321.1,331.5
		c-322.8,269.5-703.2,434.9-1105,480.5C2705.3,4474.6,2417.9,4472,2317.5,4457.4z M2826.3,4276.5
		c564.8-70.6,1104.1-433.1,1413.7-950.6c154.8-258.3,247-545.1,275.8-854.2l5.8-58.6H4380c-137.5,0-140.8,0.9-160.6,20.7
		c-10.7,11.2-21.4,35.3-24.7,53.4c-32.1,224.7-70.8,360.8-147.4,524.4c-88.9,187.7-182.8,321.2-336.8,475.3
		c-274.2,273-651.3,446-1020.2,465.9c-471.8,25.8-903.2-138.6-1235.9-471.9c-152.3-152.4-242.9-280.7-331.8-469.3
		c-78.2-167.1-113.6-291.1-147.4-524.4c-3.3-19.8-14-41.3-26.3-53.4c-20.6-19.8-25.5-20.7-160.6-20.7h-140l5.8,58.6
		c42,451.2,219,852.5,522,1183.1c266.8,291.9,599.4,491.7,968.3,583.8C2375.1,4296.3,2578.5,4307.5,2826.3,4276.5z M809.9,2174.6
		c9.1-89.6,20.6-161.9,43.6-259.2c10.7-49.1,18.1-91.3,16.5-93c-1.6-2.6-35.4-12.9-74.1-24.1l-70-18.9l-21.4,90.4
		c-23.1,99.9-42,214.4-51,304.8l-4.9,57.7h78.2h78.2L809.9,2174.6z M4516.7,2174.6c-9.1-90.4-28-204.9-51.9-304.8l-20.6-91.3
		l-70.8,19.8c-37.9,11.2-71.6,22.4-74.1,24.1c-1.6,2.6,5.8,43.9,17.3,93c22.2,96.4,34.6,168.8,43.6,259.2l4.9,57.7h78.2h78.2
		L4516.7,2174.6z M1519.6,1961c9.9-6.9,21.4-23.2,26.3-36.2c14-36.2,306.3-1183.1,306.3-1201.2c0-27.6-42.8-65.4-88.9-79.2
		c-32.9-10.3-44.5-10.3-46.9-2.6c-1.6,6-35.4,136.1-74.1,290.2c-39.5,154.1-76.6,289.3-82.3,301.4c-13.2,25.8-43.6,43.1-78.2,43.1
		c-30.5,0-71.6-36.2-78.2-68.9c-4.1-18.1,16.5-109.4,69.2-316.9c41.2-160.2,74.9-295.4,74.9-300.5c0-8.6-70-28.4-99.6-28.4
		c-8.2,0-26.3,10.3-39.5,23.2c-23.1,22.4-35.4,65.4-177.8,623.4c-161.4,632.9-158.9,620-121,656.2
		c18.1,17.2,319.5,106.8,363.9,108.5C1490,1974,1510.6,1967.9,1519.6,1961z M3877.8,1927.5c96.3-26.7,172.9-53.4,182.8-62.9
		c37.9-36.2,41.2-22.4-121-656.2c-142.4-558.9-154.8-601-177.8-623.4c-13.2-12.9-31.3-23.2-39.5-23.2c-29.6,0-99.6,19.8-99.6,28.4
		c0,5.2,33.8,139.5,74.9,300.5c53.5,208.4,73.3,298.8,69.2,316.9c-6.6,32.7-47.8,68.9-78.2,68.9c-34.6,0-65-17.2-78.2-43.1
		c-5.8-12.1-42.8-147.2-82.3-301.4c-38.7-154.1-72.5-284.2-74.1-290.2c-2.5-7.7-14-7.7-46.9,2.6c-46.1,13.8-88.9,51.7-88.9,79.2
		c0,18.1,292.3,1165.1,306.3,1201.2c11.5,30.1,36.2,49.1,65.9,49.1C3702.4,1974,3786.4,1953.3,3877.8,1927.5z M949.8,1602
		c6.6-25,29.6-113.7,50.2-196.3c21.4-82.7,71.6-279,112-435.7c40.3-157.6,73.3-291.1,73.3-297.9c0-12.1-214.9-76.6-253.6-75.8
		c-32.1,0-57.6,25-70.8,67.2c-34.6,111.9-210.8,820.6-210.8,846.5c0,49.1,25.5,66.3,154,103.3c62.6,17.2,117.7,32.7,123.5,32.7
		C932.5,1646.7,942.4,1626.1,949.8,1602z M4361.9,1614c132.6-37.9,158.1-54.2,158.1-103.3c0-25.8-177-737.1-210.8-847.3
		c-13.2-42.2-38.7-67.2-70.8-67.2c-37.9-0.9-253.6,64.6-253.6,76.6c0,6,32.9,139.5,73.3,297.1c40.3,156.7,90.6,353,112,435.7
		c52.7,208.4,61.8,241.1,68.3,241.1C4241.7,1646.7,4297.7,1632.1,4361.9,1614z"/>
	<path class="st0" d="M1340.9,1578.7c-18.9-19.8-23.9-32.7-23.9-61.1c0-101.6,145.7-121.4,169.6-22.4c2.5,12.1,2.5,32.7,0,44.8
		C1471,1605.4,1387.9,1627.8,1340.9,1578.7z"/>
	<path class="st0" d="M3709,1583c-23.1-25-32.9-56.8-25.5-87.8c15.6-65.4,98.8-87.8,145.7-38.7c18.9,19.8,23.9,32.7,23.9,61.1
		c0,52.5-33.8,86.1-86.5,86.1C3737.8,1603.7,3724.6,1598.5,3709,1583z"/>
</g>
</svg>
