<?xml version="1.0" encoding="utf-8"?>
<!-- Generator: Adobe Illustrator 24.1.2, SVG Export Plug-In . SVG Version: 6.00 Build 0)  -->
<svg version="1.1" id="Layer_1" xmlns="http://www.w3.org/2000/svg" xmlns:xlink="http://www.w3.org/1999/xlink" x="0px" y="0px"
	 viewBox="0 0 512 512" style="enable-background:new 0 0 512 512;" xml:space="preserve">
<style type="text/css">
	.st0{fill:#FFCA05;}
</style>
<g transform="translate(0.000000,512.000000) scale(0.100000,-0.100000)">
	<path class="st0" d="M3179.1,4479.5c-48.9-17.9-112.8-85.4-130.9-138.3c-14.2-40.7-15-41.5-41-37.4c-48.9,8.1-87.6-33.4-76.5-81.4
		c7.1-28.5,22.9-40.7,78.9-61.8c42.6-15.5,63.9-33.4,184.6-154.6l137.3-136.7l-30-100.9c-15.8-55.3-30.8-103.3-32.3-106.6
		c-1.6-2.4-34.7,14.6-72.6,39.9c-166.4,107.4-353.4,179-553,209.9c-107.3,16.3-326.6,16.3-429.9,0
		c-484.3-76.5-886.6-383.2-1097.3-835.5c-277.7-596.3-138.8-1323.6,335.3-1761.2c273.7-252.2,612.1-384.8,980.5-384.8
		c729.7,0.8,1342.6,554.8,1437.2,1299.2c46.5,362.8-39.4,739.5-235.1,1038l-50.5,76.5l45.8,84.6c25.2,46.4,47.3,88.7,48.9,92.7
		c3.2,8.1,30-16.3,169.6-152.1l73.4-71.6l-28.4-96.8c-41-141.6-41.8-137.5,45.8-227c60-61.8,77.3-74.8,97-74.8
		c12.6,0,30,4.9,37.9,10.6c7.9,5.7,52.1,81.4,98.6,168.4l83.6,157l147.5,83c80.5,44.7,152.2,87,159.3,92.7
		c7.9,7.3,12.6,23.6,12.6,44.7c-0.8,30.9-5.5,39-69.4,109c-55.2,59.4-74.1,74.8-91.5,74.8c-11.8,0-63.9-13.8-116-30.1
		c-70.2-22-97.8-27.7-108.1-22c-6.3,4.9-59.2,59.4-116.7,122l-104.1,113.1l268.2,153.8c282.4,161.9,289.5,167.6,278.5,216.4
		c-2.4,11.4-42.6,59.4-89.1,108.2c-76.5,78.9-86.8,87-112.8,87c-20.5,0-553.8-159.4-667.3-199.3c-4.7-1.6-63.9,56.9-130.2,131
		c-140.4,155.4-168,174.1-250.1,173.3C3237.5,4492.5,3198.8,4486,3179.1,4479.5z M3360.5,4292.4c37.1-39.9,104.1-110.6,148.3-158.6
		c70.2-75.7,85.2-87.9,106.5-87.9c14.2,0,172,45.6,351.8,101.7l327.4,102.5l27.6-28.5c15-16.3,26-30.1,23.7-32.5
		c-1.6-1.6-119.9-70-263.5-150.5c-142.8-81.4-265-153.8-269.8-161.1c-5.5-7.3-10.3-25.2-10.3-39.9c0-22,18.9-46.4,134.9-174.9
		c182.2-203.4,206.7-227,231.9-227c11,0,63.9,13,116,29.3c90.7,28.5,119.9,30.1,118.3,8.1c0-4.1-54.4-37.4-119.9-74.8l-119.9-66.7
		l-66.3-124.5c-36.3-67.5-67.8-125.3-70.2-127.7c-2.4-2.4-9.5,0.8-15,7.3c-9.5,9.8-6.3,27.7,20.5,119.6
		c18.1,62.6,30,115.5,26.8,126.9c-7.1,29.3-342.4,359.6-373.1,367.7c-46.5,12.2-52.1,4.1-205.1-277.4
		c-80.5-148.1-148.3-270.9-151.5-275c-3.2-3.3-17.4,7.3-32.3,22.8l-26,28.5l99.4,340c55.2,187.1,100.2,349,100.2,359.6
		c0,20.3-29.2,52.1-210.6,228.6c-93.9,91.1-97,95.2-97,127.7c0,26,5.5,39.9,25.2,63.5c28.4,32.5,46.5,42.3,80.5,43.1
		C3288.7,4363.2,3304.5,4350.1,3360.5,4292.4z M2554.3,3741.6c126.2-139.9,137.3-291.2,32.3-457.2
		c-48.1-75.7-188.5-222.9-326.6-342.5c-294.2-253.8-383.4-360.4-405.5-484.9c-10.3-56.9-1.6-107.4,26.8-157.8
		c34.7-60.2,93.9-104.1,246.9-183.9c78.9-41.5,158.6-86.2,175.9-100.9l32.3-26l-46.5-14.6c-35.5-11.4-72.6-14.6-164.1-14.6
		c-142.8,0-200.4,13.8-331.3,81.4c-100.2,52.1-179.1,110.6-329.7,247.3c-59.2,53.7-128.6,113.9-154.6,134.2
		c-57.6,46.4-138,86.2-172,86.2h-25.2l3.9,43.1c7.9,81.4,36.3,221.3,60,298.6c106.5,344.1,369.2,654.1,684.7,808.6
		c180.6,87.9,362.1,131.8,560.9,134.2l84.4,0.8L2554.3,3741.6z M2903,3706.7c41-15.5,104.9-44.7,142-65.1
		c78.1-43.1,181.4-113.9,181.4-123.7c0-4.1-21.3-78.9-47.3-167.6s-47.3-168.4-47.3-177.3c0-21.2,168-197.7,195.6-205
		c41.8-10.6,59.2,6.5,125.4,131l63.1,118l32.3-51.3c52.9-87,104.1-199.3,135.7-298.6c46.5-147.2,48.1-132.6-13.4-167.6
		c-29.2-16.3-73.4-46.4-98.6-65.9c-86-68.3-109.6-116.3-134.9-273.3c-22.1-136.7-48.9-202.6-120.7-300.2
		c-60-81.4-114.4-138.3-235.9-246.5c-275.3-246.5-362.1-395.4-361.3-620.7v-91.1l-36.3-8.1c-113.6-26.8-293.4-32.5-424.4-13
		c-297.4,43.1-542.7,170-756.5,389.7c-155.4,161.1-261.9,338.4-325,542.6c-44.2,142.4-78.9,365.3-56.8,365.3
		c27.6,0,112-61,224.8-163.5c179.9-162.7,276.1-235.9,386.5-292.1c145.1-74.8,208.2-91.1,370.7-95.2c152.2-4.1,221.7,6.5,295.8,43.9
		c50.5,26.8,73.4,61,73.4,112.3c0,77.3-64.7,136.7-258.7,237.5c-73.4,38.2-149.9,82.2-168.8,98.4c-40.2,34.2-67.1,87.9-59.2,121.2
		c15.8,71.6,104.9,173.3,314.7,359.6c265.8,235.9,381.8,366.1,445.7,499.5c71.8,150.5,69.4,294.5-7.9,423
		c-13.4,22-23.7,40.7-23.7,42.3C2713.7,3770.9,2826.5,3735.9,2903,3706.7z M3750.2,2552.3c8.7-65.1,4.7-214.8-7.1-301.8
		c-20.5-150.5-66.3-301.8-130.9-434.4c-118.3-243.2-347.1-479.2-582.2-600.4c-67.1-34.2-160.1-74-174.3-74
		c-15.8,0-5.5,149.7,14.2,205.8c36.3,103.3,128.6,218,296.6,367.7c119.1,104.9,198,188.7,259.5,273.3
		c84.4,117.1,115.2,193.6,135.7,334.4c15.8,111.5,23.7,132.6,62.3,175.7c29.2,32.5,103.3,91.1,116,91.1
		C3742.3,2589.7,3747,2572.6,3750.2,2552.3z"/>
	<path class="st0" d="M2512.5,4385.9c-37.9-22.8-47.3-70.8-21.3-104.1c12.6-15.5,28.4-20.3,97-29.3c123.8-16.3,151.5-14.6,171.2,7.3
		c18.9,20.3,22.9,61,9.5,87c-9.5,17.9-45.8,29.3-118.3,36.6c-28.4,2.4-67.1,6.5-86.8,8.1C2544.1,4394.1,2521.2,4391.6,2512.5,4385.9
		z"/>
	<path class="st0" d="M2165.5,4376.2c-114.4-18.7-121.5-21.2-138-43.1c-21.3-28.5-20.5-63.5,3.9-87.9c22.9-24.4,33.1-24.4,156.2-4.9
		c106.5,16.3,127,29.3,127,78.1C2314.5,4377.8,2272.7,4394.1,2165.5,4376.2z"/>
	<path class="st0" d="M1731.6,4258.2c-138.8-57.8-146.7-64.3-148.3-111.5c-0.8-22.8,3.9-34.2,21.3-48.8
		c11.8-10.6,29.2-19.5,38.7-19.5c24.5,0,204.3,79.7,216.9,95.2c16.6,22.8,11.8,65.9-10.3,87.9
		C1825.5,4287.5,1801,4286.7,1731.6,4258.2z"/>
	<path class="st0" d="M1340.3,4038.6c-56.8-37.4-128.6-98.4-138.8-117.1c-15-27.7-11.8-51.3,8.7-75.7
		c32.3-39.9,61.5-32.5,149.1,36.6c92.3,72.4,95.4,76.5,95.4,112.3c0,21.2-5.5,34.2-22.1,48C1404.2,4067.9,1383.7,4067,1340.3,4038.6
		z"/>
	<path class="st0" d="M1009,3734.3c-21.3-17.1-118.3-144.8-126.2-166.8c-16.6-43.9,15-91.1,60.7-91.1c31.6,0,45,11.4,112.8,101.7
		c63.1,83,71.8,116.3,37.9,148.9C1073.7,3747.3,1029.5,3750.6,1009,3734.3z"/>
	<path class="st0" d="M753.5,3336.5c-26.8-25.2-90.7-173.3-90.7-211.5c0-40.7,22.1-63.5,61.5-63.5c21.3,0,35.5,5.7,47.3,18.7
		c9.5,10.6,17.4,22,17.4,25.2s15.8,41.5,35.5,85.4c19.7,43.9,35.5,87.9,35.5,97.6c0,25.2-41,65.9-66.3,65.9
		C782.6,3354.4,765.3,3346.3,753.5,3336.5z"/>
	<path class="st0" d="M4165.1,2955.8c-20.5-21.2-19.7-55.3,3.2-161.1c21.3-96,36.3-118.8,78.9-118.8c15,0,33.1,4.9,40.2,11.4
		c26,22.8,28.4,46.4,11.8,132.6c-21.3,109-30,134.2-47.3,144C4226.7,2977.8,4182.5,2973.7,4165.1,2955.8z"/>
	<path class="st0" d="M605.9,2902.9c-24.5-13.8-31.6-35-49.7-153.8c-14.2-89.5-11.8-110.6,13.4-135c22.9-21.2,56-20.3,80.5,2.4
		c17.4,15.5,22.9,32.5,36.3,113.9c8.7,53.7,15.8,107.4,15.8,119.6C702.2,2898,649.3,2927.3,605.9,2902.9z"/>
	<path class="st0" d="M4224.3,2488c-17.4-17.1-19.7-26.8-19.7-75.7c0-30.9-2.4-83.8-4.7-118c-4.7-58.6-4.7-61.8,15-82.2
		c33.1-34.2,84.4-26.8,106.5,16.3c14.2,27.7,21.3,216.4,9.5,240C4307.1,2513.2,4257.4,2523,4224.3,2488z"/>
	<path class="st0" d="M552.3,2410.7c-13.4-13.8-15.8-26.8-15.8-83c0.8-103.3,11.8-170.8,32.3-187.1c18.9-16.3,55.2-18.7,78.1-6.5
		c30.8,17.1,33.1,35.8,23.7,148.9c-7.9,88.7-12.6,110.6-26,126.1C623.3,2432.7,574.4,2433.5,552.3,2410.7z"/>
	<path class="st0" d="M4175.4,2016.2c-19.7-14.6-73.4-179-73.4-226.2c0-51.3,59.2-80.5,100.2-50.4c21.3,15.5,73.4,174.9,73.4,222.9
		c0,25.2-4.7,35.8-20.5,48.8C4229.8,2031.6,4199,2033.3,4175.4,2016.2z"/>
	<path class="st0" d="M627.2,1943c-26-26-25.2-49.6,4.7-143.2c30-92.7,41.8-118,61.5-129.3c43.4-23.6,95.4,6.5,95.4,55.3
		c0,43.1-53.6,197.7-76.5,219.6C687.2,1969.8,651.7,1969,627.2,1943z"/>
	<path class="st0" d="M4005,1571.2c-24.5-23.6-116-179-116-196.9c0-20.3,21.3-59.4,35.5-65.1c23.7-8.9,57.6-4.9,73.4,9.8
		c8.7,7.3,37.9,50.4,63.9,95.2c59.2,100.1,63.1,137.5,15.8,162.7C4046.8,1594,4027.1,1592.3,4005,1571.2z"/>
	<path class="st0" d="M840.2,1526.5c-38.7-9.8-60.7-57.8-42.6-93.6c4.7-10.6,30.8-52.9,56.8-93.6c51.3-81.4,78.1-100.1,116.7-84.6
		c58.4,22.8,55.2,65.1-10.3,168.4c-29.2,44.7-56.8,85.4-63.1,90.3C883.6,1525.6,859.2,1530.5,840.2,1526.5z"/>
	<path class="st0" d="M3751,1199.4c-8.7-4.1-48.9-39.9-88.3-79.7c-65.5-65.1-73.4-76.5-73.4-102.5c0-36.6,20.5-61.8,56-67.5
		c26-4.9,33.1-0.8,74.9,37.4c83.6,75.7,113.6,114.7,113.6,147.2C3833.8,1184,3792,1216.5,3751,1199.4z"/>
	<path class="st0" d="M1114.7,1149.8c-30-12.2-45.8-45.6-37.1-79.7c5.5-22.8,23.7-43.9,81.2-96.8c67.8-61.8,77.3-67.5,107.3-67.5
		c36.3,0,54.4,14.6,63.1,50.4c7.9,30.9-7.1,52.9-86.8,126.1C1170,1149,1144.7,1162,1114.7,1149.8z"/>
	<path class="st0" d="M3313.2,848c-45.8-26.8-87.6-55.3-92.3-62.6c-5.5-6.5-10.3-26.8-10.3-43.1c0-35,27.6-64.3,60.7-64.3
		c31.6,0,183.8,87,203.5,117.1c17.4,25.2,14.2,60.2-7.9,82.2C3436.3,909.8,3407.1,904.1,3313.2,848z"/>
	<path class="st0" d="M1469.7,855.3c-34.7-17.1-41.8-78.9-11.8-106.6c23.7-22,179.9-103.3,198-103.3c22.1,0,63.9,42.3,63.9,64.3
		c0,38.2-18.1,56.1-106.5,105.8C1523.3,865.1,1502.1,871.6,1469.7,855.3z"/>
	<path class="st0" d="M2989,699.1c-2.4-2.4-45-15.5-94.7-29.3c-98.6-26-117.5-39.9-117.5-84.6c0.8-30.9,14.2-50.4,41.8-61
		c16.6-6.5,38.7-4.1,97.8,12.2c42.6,11.4,85.2,22.8,95.4,25.2c9.5,2.4,26.8,15.5,37.9,29.3c22.9,27.7,21.3,63.5-3.2,88.7
		C3032.4,694.2,2996.1,706.4,2989,699.1z"/>
	<path class="st0" d="M1879.9,660.1c-20.5-22-24.5-68.3-7.9-91.1c13.4-18.7,130.2-53.7,199.6-59.4c51.3-4.1,57.6-3.3,72.6,14.6
		c21.3,22.8,22.9,64.3,3.2,88.7c-10.3,13-36.3,23.6-96.2,37.4C1920.1,682,1900.4,682.8,1879.9,660.1z"/>
	<path class="st0" d="M2437.6,607.2c-71-2.4-85.2-5.7-100.2-20.3c-23.7-22.8-24.5-73.2-2.4-96c14.2-14.6,26-16.3,125.4-16.3
		c104.9,0,111.2,0.8,131.7,19.5c27.6,24.4,30.8,70,5.5,95.2C2579.6,608.8,2554.3,611.3,2437.6,607.2z"/>
</g>
</svg>
