<?xml version="1.0" encoding="utf-8"?>
<!-- Generator: Adobe Illustrator 24.1.2, SVG Export Plug-In . SVG Version: 6.00 Build 0)  -->
<svg version="1.1" id="Layer_1" xmlns="http://www.w3.org/2000/svg" xmlns:xlink="http://www.w3.org/1999/xlink" x="0px" y="0px"
	 viewBox="0 0 512 512" style="enable-background:new 0 0 512 512;" xml:space="preserve">
<style type="text/css">
	.st0{fill:#FFCA05;}
</style>
<g transform="translate(0.000000,512.000000) scale(0.100000,-0.100000)">
	<path class="st0" d="M758,4753.4c-106.8-35.6-187.4-101.9-239-198l-29-54.7V2649.1V797.4l29-54.7c52.5-98.6,134-164,243.5-198
		c52.5-16.6,77-16.6,1506.5-14.9l1453.1,2.5l63.4,28.2c125.8,56.3,212.8,166.5,230.9,292.5c4.5,33.1,9.1,306.5,9.1,607.3V2007
		l510.6,468.1c316,290,518.8,482.2,533.3,505.4c42.6,70.4,54.3,118.5,49.8,209.6c-2.7,75.4-7.2,91.1-34.4,142.5
		c-39.8,76.2-115,145-196.5,180.6c-58.8,25.7-66.1,26.5-174.7,26.5c-109.5,0-115-0.8-176.5-27.3c-56.1-24-86.9-49.7-287-231.1
		l-223.6-203.8l-2.7,517c-3.6,494.6-4.5,519.5-21.7,566.7c-10,27.3-29.9,66.3-43.5,87c-32.6,47.2-459,438.3-509.7,466.4
		c-20.8,12.4-62.5,29-92.3,38.9c-54.3,16.6-70.6,16.6-1301.9,16.6C845.8,4769.2,805.1,4769.2,758,4753.4z M2929.9,4188.4
		c0-313.2,0.9-335.5,17.2-357.9c9.1-12.4,29-30.7,42.6-38.9c24.4-14.9,48.9-15.7,391.1-15.7h364v-478v-478.9l-311.4-285.8
		l-311.4-285.8l-101.4-281.7c-69.7-191.4-102.3-292.5-101.4-316.5c0.9-69.6,54.3-118.5,131.3-120.1
		c48.9-0.8,634.7,175.6,671.8,202.2l23.5,16.6l-2.7-437.4c-2.7-434.1-2.7-438.3-22.6-467.3c-10.9-15.7-33.5-36.5-49.8-45.6
		c-29.9-16.6-46.2-16.6-1419.6-16.6s-1389.7,0-1419.6,16.6c-16.3,9.1-38,28.2-48,42.3c-17.2,25.7-17.2,61.3-17.2,1810.3
		c0,1722.4,0.9,1785.4,17.2,1807.8c20.8,29,49.8,48.1,86,56.3c15.4,3.3,485.3,5.8,1044.8,6.6l1015.8,0.8V4188.4z M3264.9,4509.9
		c13.6-2.5,110.5-85.3,247.2-210.4c178.4-164,223.6-209.6,223.6-227c0-12.4,2.7-27.3,5.4-34.8c5.4-11.6-21.7-13.3-262.6-13.3h-268
		v249.4c0,232.8,0.9,248.5,16.3,245.2C3235,4516.5,3252.2,4512.3,3264.9,4509.9z M4783.2,3270.4c37.1-20.7,57-56.3,57-101.9
		c0-43.1-22.6-74.6-110.5-152.4l-57-52.2l-93.3,85.3l-92.3,84.5l74.2,67.1c41.6,37.3,83.3,71.3,93.3,76.2
		C4684.5,3292,4751.5,3288.7,4783.2,3270.4z M4147.6,2483.4l-321.4-294.1l-92.3,85.3l-93.3,84.5l321.4,294.1l321.4,294.1l92.3-84.5
		l93.3-85.3L4147.6,2483.4z M3593.6,1976.3c-28.1-26.5-53.4-37.3-169.3-72.9c-74.2-22.4-136.7-39.8-138.5-38.9
		c-0.9,1.7,18.1,58,42.6,125.9c38,102.7,50.7,129.2,78.8,154.9l33.5,31.5l93.3-84.5l93.3-84.5L3593.6,1976.3z"/>
	<path class="st0" d="M1088.4,3511.5c-41.6-25.7-59.8-57.2-59.8-108.5s18.1-82.8,59.8-108.5c25.3-14.9,61.6-15.7,1025.8-15.7
		c971.4,0,1000.4,0.8,1027.6,15.7c39.8,23.2,61.6,61.3,61.6,108.5c0,47.2-21.7,85.3-61.6,108.5c-27.2,14.9-56.1,15.7-1027.6,15.7
		C1150,3527.3,1113.8,3526.4,1088.4,3511.5z"/>
	<path class="st0" d="M1088.4,3014.4c-41.6-25.7-59.8-57.2-59.8-108.5c0-51.4,18.1-82.8,59.8-108.5c25.3-14.9,56.1-15.7,753.3-15.7
		c677.2,0,729.7,0.8,755.1,14.9c85.1,45.6,85.1,173.2,0,219.6c-25.4,13.3-77.9,14.1-755.1,14.1
		C1144.6,3030.2,1113.8,3029.3,1088.4,3014.4z"/>
	<path class="st0" d="M1088.4,2517.3c-41.6-25.7-59.8-57.2-59.8-108.5s18.1-82.8,59.8-108.5c25.3-14.9,56.1-15.7,753.3-15.7
		c677.2,0,729.7,0.8,755.1,14.9c85.1,45.6,85.1,173.2,0,219.6c-25.4,13.3-77.9,14.1-755.1,14.1
		C1144.6,2533.1,1113.8,2532.2,1088.4,2517.3z"/>
	<path class="st0" d="M1088.4,2020.2c-41.6-25.7-59.8-57.2-59.8-108.5c0-51.4,18.1-82.8,59.8-108.5c25.3-14.9,56.1-15.7,753.3-15.7
		c677.2,0,729.7,0.8,755.1,14.9c85.1,45.6,85.1,173.2,0,219.6c-25.4,13.3-77.9,14.1-755.1,14.1
		C1144.6,2036,1113.8,2035.1,1088.4,2020.2z"/>
	<path class="st0" d="M2174.9,1258c-41.6-25.7-59.8-57.2-59.8-108.5c0-51.4,18.1-82.8,59.8-108.5c24.4-14.9,50.7-15.7,482.6-15.7
		c434.6,0,457.2,0.8,484.4,15.7c39.8,23.2,61.6,61.3,61.6,108.5c0,47.2-21.7,85.3-61.6,108.5c-27.2,14.9-49.8,15.7-484.4,15.7
		C2225.6,1273.8,2199.3,1272.9,2174.9,1258z"/>
</g>
</svg>
